<mxfile host="65bd71144e" scale="1" border="10">
    <diagram id="59DvSauhzj3vqoOBRgNi" name="iterator">
        <mxGraphModel dx="1632" dy="851" grid="1" gridSize="10" guides="1" tooltips="1" connect="1" arrows="1" fold="1" page="1" pageScale="1" pageWidth="827" pageHeight="1169" background="#FFFFFF" math="0" shadow="0">
            <root>
                <mxCell id="w9Iu98WscyFDLbroQzuf-0"/>
                <mxCell id="w9Iu98WscyFDLbroQzuf-1" parent="w9Iu98WscyFDLbroQzuf-0"/>
                <mxCell id="Yrwoq0YL18L5McrpzAKP-1" value="std::vector::iterator" style="text;strokeColor=#666666;fillColor=#f5f5f5;html=1;fontSize=24;fontStyle=1;verticalAlign=middle;align=center;shadow=0;labelBorderColor=none;fontColor=#333333;" parent="w9Iu98WscyFDLbroQzuf-1" vertex="1">
                    <mxGeometry x="235" y="230" width="230" height="40" as="geometry"/>
                </mxCell>
                <mxCell id="Yrwoq0YL18L5McrpzAKP-21" value="value0" style="rounded=0;whiteSpace=wrap;html=1;shadow=0;labelBorderColor=none;strokeColor=#666666;fillColor=#f5f5f5;fontColor=#333333;" parent="w9Iu98WscyFDLbroQzuf-1" vertex="1">
                    <mxGeometry x="150" y="320" width="80" height="40" as="geometry"/>
                </mxCell>
                <mxCell id="Yrwoq0YL18L5McrpzAKP-22" value="value1" style="rounded=0;whiteSpace=wrap;html=1;shadow=0;labelBorderColor=none;strokeColor=#666666;fillColor=#f5f5f5;fontColor=#333333;" parent="w9Iu98WscyFDLbroQzuf-1" vertex="1">
                    <mxGeometry x="230" y="320" width="80" height="40" as="geometry"/>
                </mxCell>
                <mxCell id="Yrwoq0YL18L5McrpzAKP-24" value="" style="rounded=0;whiteSpace=wrap;html=1;shadow=0;labelBorderColor=none;strokeColor=#666666;fillColor=#f5f5f5;fontColor=#333333;" parent="w9Iu98WscyFDLbroQzuf-1" vertex="1">
                    <mxGeometry x="310" y="320" width="80" height="40" as="geometry"/>
                </mxCell>
                <mxCell id="Yrwoq0YL18L5McrpzAKP-26" value="" style="rounded=0;whiteSpace=wrap;html=1;shadow=0;labelBorderColor=none;strokeColor=#666666;fillColor=#f5f5f5;fontColor=#333333;" parent="w9Iu98WscyFDLbroQzuf-1" vertex="1">
                    <mxGeometry x="470" y="320" width="80" height="40" as="geometry"/>
                </mxCell>
                <mxCell id="Yrwoq0YL18L5McrpzAKP-27" value="" style="rounded=0;whiteSpace=wrap;html=1;shadow=0;labelBorderColor=none;strokeColor=#666666;fillColor=#f5f5f5;fontColor=#333333;" parent="w9Iu98WscyFDLbroQzuf-1" vertex="1">
                    <mxGeometry x="390" y="320" width="80" height="40" as="geometry"/>
                </mxCell>
                <mxCell id="Yrwoq0YL18L5McrpzAKP-29" value="" style="edgeStyle=none;html=1;fillColor=#f5f5f5;strokeColor=#666666;" parent="w9Iu98WscyFDLbroQzuf-1" source="Yrwoq0YL18L5McrpzAKP-28" target="Yrwoq0YL18L5McrpzAKP-21" edge="1">
                    <mxGeometry relative="1" as="geometry"/>
                </mxCell>
                <mxCell id="Yrwoq0YL18L5McrpzAKP-28" value="begin()" style="rounded=0;whiteSpace=wrap;html=1;shadow=0;labelBorderColor=none;strokeColor=#666666;fillColor=#f5f5f5;fontColor=#333333;" parent="w9Iu98WscyFDLbroQzuf-1" vertex="1">
                    <mxGeometry x="150" y="400" width="80" height="40" as="geometry"/>
                </mxCell>
                <mxCell id="Yrwoq0YL18L5McrpzAKP-31" value="" style="edgeStyle=none;html=1;fillColor=#f5f5f5;strokeColor=#666666;" parent="w9Iu98WscyFDLbroQzuf-1" source="Yrwoq0YL18L5McrpzAKP-30" edge="1">
                    <mxGeometry relative="1" as="geometry">
                        <mxPoint x="350" y="360" as="targetPoint"/>
                    </mxGeometry>
                </mxCell>
                <mxCell id="Yrwoq0YL18L5McrpzAKP-30" value="end()" style="rounded=0;whiteSpace=wrap;html=1;shadow=0;labelBorderColor=none;strokeColor=#666666;fillColor=#f5f5f5;fontColor=#333333;" parent="w9Iu98WscyFDLbroQzuf-1" vertex="1">
                    <mxGeometry x="310" y="400" width="80" height="40" as="geometry"/>
                </mxCell>
                <mxCell id="Yrwoq0YL18L5McrpzAKP-32" value="" style="rounded=0;whiteSpace=wrap;html=1;shadow=0;labelBorderColor=none;strokeColor=#666666;fillColor=#f5f5f5;fontColor=#333333;" parent="w9Iu98WscyFDLbroQzuf-1" vertex="1">
                    <mxGeometry x="150" y="480" width="80" height="40" as="geometry"/>
                </mxCell>
                <mxCell id="Yrwoq0YL18L5McrpzAKP-33" value="" style="rounded=0;whiteSpace=wrap;html=1;shadow=0;labelBorderColor=none;strokeColor=#666666;fillColor=#f5f5f5;fontColor=#333333;" parent="w9Iu98WscyFDLbroQzuf-1" vertex="1">
                    <mxGeometry x="230" y="480" width="80" height="40" as="geometry"/>
                </mxCell>
                <mxCell id="Yrwoq0YL18L5McrpzAKP-34" value="" style="rounded=0;whiteSpace=wrap;html=1;shadow=0;labelBorderColor=none;strokeColor=#666666;fillColor=#f5f5f5;fontColor=#333333;" parent="w9Iu98WscyFDLbroQzuf-1" vertex="1">
                    <mxGeometry x="310" y="480" width="80" height="40" as="geometry"/>
                </mxCell>
                <mxCell id="Yrwoq0YL18L5McrpzAKP-35" value="" style="rounded=0;whiteSpace=wrap;html=1;shadow=0;labelBorderColor=none;strokeColor=#666666;fillColor=#f5f5f5;fontColor=#333333;" parent="w9Iu98WscyFDLbroQzuf-1" vertex="1">
                    <mxGeometry x="470" y="480" width="80" height="40" as="geometry"/>
                </mxCell>
                <mxCell id="Yrwoq0YL18L5McrpzAKP-36" value="" style="rounded=0;whiteSpace=wrap;html=1;shadow=0;labelBorderColor=none;strokeColor=#666666;fillColor=#f5f5f5;fontColor=#333333;" parent="w9Iu98WscyFDLbroQzuf-1" vertex="1">
                    <mxGeometry x="390" y="480" width="80" height="40" as="geometry"/>
                </mxCell>
                <mxCell id="Yrwoq0YL18L5McrpzAKP-37" value="" style="edgeStyle=none;html=1;fillColor=#f5f5f5;strokeColor=#666666;" parent="w9Iu98WscyFDLbroQzuf-1" source="Yrwoq0YL18L5McrpzAKP-38" target="Yrwoq0YL18L5McrpzAKP-32" edge="1">
                    <mxGeometry relative="1" as="geometry"/>
                </mxCell>
                <mxCell id="Yrwoq0YL18L5McrpzAKP-38" value="begin()" style="rounded=0;whiteSpace=wrap;html=1;shadow=0;labelBorderColor=none;strokeColor=#666666;fillColor=#f5f5f5;fontColor=#333333;" parent="w9Iu98WscyFDLbroQzuf-1" vertex="1">
                    <mxGeometry x="150" y="560" width="40" height="40" as="geometry"/>
                </mxCell>
                <mxCell id="Yrwoq0YL18L5McrpzAKP-42" value="" style="edgeStyle=none;html=1;entryX=0.5;entryY=1;entryDx=0;entryDy=0;fillColor=#f5f5f5;strokeColor=#666666;" parent="w9Iu98WscyFDLbroQzuf-1" source="Yrwoq0YL18L5McrpzAKP-41" target="Yrwoq0YL18L5McrpzAKP-32" edge="1">
                    <mxGeometry relative="1" as="geometry"/>
                </mxCell>
                <mxCell id="Yrwoq0YL18L5McrpzAKP-41" value="end()" style="rounded=0;whiteSpace=wrap;html=1;shadow=0;labelBorderColor=none;strokeColor=#666666;fillColor=#f5f5f5;fontColor=#333333;" parent="w9Iu98WscyFDLbroQzuf-1" vertex="1">
                    <mxGeometry x="195" y="560" width="40" height="40" as="geometry"/>
                </mxCell>
                <mxCell id="0" value="容器为空时" style="text;html=1;align=center;verticalAlign=middle;resizable=0;points=[];autosize=1;strokeColor=#666666;fillColor=#f5f5f5;fontColor=#333333;fontSize=18;" vertex="1" parent="w9Iu98WscyFDLbroQzuf-1">
                    <mxGeometry x="295" y="445" width="110" height="30" as="geometry"/>
                </mxCell>
                <mxCell id="1" value="容器不为空时" style="text;html=1;align=center;verticalAlign=middle;resizable=0;points=[];autosize=1;strokeColor=#666666;fillColor=#f5f5f5;fontColor=#333333;fontSize=18;" vertex="1" parent="w9Iu98WscyFDLbroQzuf-1">
                    <mxGeometry x="290" y="280" width="120" height="30" as="geometry"/>
                </mxCell>
            </root>
        </mxGraphModel>
    </diagram>
</mxfile>